<mxfile host="app.diagrams.net" modified="2024-06-24T10:45:07.435Z" agent="Mozilla/5.0 (X11; Linux x86_64) AppleWebKit/537.36 (KHTML, like Gecko) Chrome/126.0.0.0 Safari/537.36" etag="2MvUsEhgz7BeGYwEYudw" version="24.6.2" type="github">
  <diagram name="Page-1" id="AZn-Yg96uJJ35NVFmHnW">
    <mxGraphModel dx="869" dy="688" grid="1" gridSize="10" guides="1" tooltips="1" connect="1" arrows="1" fold="1" page="1" pageScale="1" pageWidth="850" pageHeight="1100" math="0" shadow="0">
      <root>
        <mxCell id="0" />
        <mxCell id="1" parent="0" />
        <mxCell id="KiN4PA8L3Kas0firW-a9-20" value="Start Migration" style="whiteSpace=wrap;strokeWidth=2;" vertex="1" parent="1">
          <mxGeometry x="455" y="80" width="119" height="33" as="geometry" />
        </mxCell>
        <mxCell id="KiN4PA8L3Kas0firW-a9-21" value="Option 1: Direct Replacement" style="whiteSpace=wrap;strokeWidth=2;" vertex="1" parent="1">
          <mxGeometry x="62" y="163" width="225" height="33" as="geometry" />
        </mxCell>
        <mxCell id="KiN4PA8L3Kas0firW-a9-22" value="Option 2: Gradual Replacement" style="whiteSpace=wrap;strokeWidth=2;" vertex="1" parent="1">
          <mxGeometry x="394" y="163" width="240" height="33" as="geometry" />
        </mxCell>
        <mxCell id="KiN4PA8L3Kas0firW-a9-23" value="Option 3: New Project with .NET 8.0" style="whiteSpace=wrap;strokeWidth=2;" vertex="1" parent="1">
          <mxGeometry x="693" y="163" width="271" height="33" as="geometry" />
        </mxCell>
        <mxCell id="KiN4PA8L3Kas0firW-a9-24" value="Remove Azure config from Program.cs" style="whiteSpace=wrap;strokeWidth=2;" vertex="1" parent="1">
          <mxGeometry x="30" y="246" width="290" height="33" as="geometry" />
        </mxCell>
        <mxCell id="KiN4PA8L3Kas0firW-a9-25" value="Add AWS configuration to Program.cs" style="whiteSpace=wrap;strokeWidth=2;" vertex="1" parent="1">
          <mxGeometry x="33" y="330" width="283" height="33" as="geometry" />
        </mxCell>
        <mxCell id="KiN4PA8L3Kas0firW-a9-26" value="Replace all key access at once" style="whiteSpace=wrap;strokeWidth=2;" vertex="1" parent="1">
          <mxGeometry x="58" y="413" width="235" height="33" as="geometry" />
        </mxCell>
        <mxCell id="KiN4PA8L3Kas0firW-a9-27" value="Test application" style="whiteSpace=wrap;strokeWidth=2;" vertex="1" parent="1">
          <mxGeometry x="112" y="496" width="125" height="33" as="geometry" />
        </mxCell>
        <mxCell id="KiN4PA8L3Kas0firW-a9-28" value="Run existing code with Azure" style="whiteSpace=wrap;strokeWidth=2;" vertex="1" parent="1">
          <mxGeometry x="404" y="246" width="220" height="33" as="geometry" />
        </mxCell>
        <mxCell id="KiN4PA8L3Kas0firW-a9-29" value="Add AWS config to Program.cs" style="whiteSpace=wrap;strokeWidth=2;" vertex="1" parent="1">
          <mxGeometry x="397" y="330" width="234" height="33" as="geometry" />
        </mxCell>
        <mxCell id="KiN4PA8L3Kas0firW-a9-30" value="Replace key access one by one" style="whiteSpace=wrap;strokeWidth=2;" vertex="1" parent="1">
          <mxGeometry x="394" y="413" width="241" height="33" as="geometry" />
        </mxCell>
        <mxCell id="KiN4PA8L3Kas0firW-a9-31" value="Test after each replacement" style="whiteSpace=wrap;strokeWidth=2;" vertex="1" parent="1">
          <mxGeometry x="332" y="496" width="212" height="33" as="geometry" />
        </mxCell>
        <mxCell id="KiN4PA8L3Kas0firW-a9-32" value="All keys replaced?" style="rhombus;strokeWidth=2;whiteSpace=wrap;" vertex="1" parent="1">
          <mxGeometry x="425" y="597" width="178" height="178" as="geometry" />
        </mxCell>
        <mxCell id="KiN4PA8L3Kas0firW-a9-33" value="Final testing" style="whiteSpace=wrap;strokeWidth=2;" vertex="1" parent="1">
          <mxGeometry x="464" y="917" width="101" height="33" as="geometry" />
        </mxCell>
        <mxCell id="KiN4PA8L3Kas0firW-a9-34" value="Create new .NET 8.0 project" style="whiteSpace=wrap;strokeWidth=2;" vertex="1" parent="1">
          <mxGeometry x="721" y="246" width="217" height="33" as="geometry" />
        </mxCell>
        <mxCell id="KiN4PA8L3Kas0firW-a9-35" value="Set up AWS configuration" style="whiteSpace=wrap;strokeWidth=2;" vertex="1" parent="1">
          <mxGeometry x="731" y="330" width="197" height="33" as="geometry" />
        </mxCell>
        <mxCell id="KiN4PA8L3Kas0firW-a9-36" value="Migrate code incrementally" style="whiteSpace=wrap;strokeWidth=2;" vertex="1" parent="1">
          <mxGeometry x="726" y="413" width="206" height="33" as="geometry" />
        </mxCell>
        <mxCell id="KiN4PA8L3Kas0firW-a9-37" value="Compare with Swagger" style="whiteSpace=wrap;strokeWidth=2;" vertex="1" parent="1">
          <mxGeometry x="675" y="496" width="181" height="33" as="geometry" />
        </mxCell>
        <mxCell id="KiN4PA8L3Kas0firW-a9-38" value="Test and verify" style="whiteSpace=wrap;strokeWidth=2;" vertex="1" parent="1">
          <mxGeometry x="707" y="670" width="118" height="33" as="geometry" />
        </mxCell>
        <mxCell id="KiN4PA8L3Kas0firW-a9-39" value="All code migrated?" style="rhombus;strokeWidth=2;whiteSpace=wrap;" vertex="1" parent="1">
          <mxGeometry x="739" y="843" width="181" height="181" as="geometry" />
        </mxCell>
        <mxCell id="KiN4PA8L3Kas0firW-a9-40" value="Final testing and deployment" style="whiteSpace=wrap;strokeWidth=2;" vertex="1" parent="1">
          <mxGeometry x="719" y="1092" width="220" height="33" as="geometry" />
        </mxCell>
        <mxCell id="KiN4PA8L3Kas0firW-a9-41" value="" style="curved=1;startArrow=none;endArrow=block;exitX=0;exitY=0.72;entryX=0.5;entryY=0.01;rounded=0;" edge="1" parent="1" source="KiN4PA8L3Kas0firW-a9-20" target="KiN4PA8L3Kas0firW-a9-21">
          <mxGeometry relative="1" as="geometry">
            <Array as="points">
              <mxPoint x="175" y="138" />
            </Array>
          </mxGeometry>
        </mxCell>
        <mxCell id="KiN4PA8L3Kas0firW-a9-42" value="" style="curved=1;startArrow=none;endArrow=block;exitX=0.5;exitY=1.01;entryX=0.5;entryY=0.01;rounded=0;" edge="1" parent="1" source="KiN4PA8L3Kas0firW-a9-20" target="KiN4PA8L3Kas0firW-a9-22">
          <mxGeometry relative="1" as="geometry">
            <Array as="points" />
          </mxGeometry>
        </mxCell>
        <mxCell id="KiN4PA8L3Kas0firW-a9-43" value="" style="curved=1;startArrow=none;endArrow=block;exitX=1;exitY=0.74;entryX=0.5;entryY=0.01;rounded=0;" edge="1" parent="1" source="KiN4PA8L3Kas0firW-a9-20" target="KiN4PA8L3Kas0firW-a9-23">
          <mxGeometry relative="1" as="geometry">
            <Array as="points">
              <mxPoint x="829" y="138" />
            </Array>
          </mxGeometry>
        </mxCell>
        <mxCell id="KiN4PA8L3Kas0firW-a9-44" value="" style="curved=1;startArrow=none;endArrow=block;exitX=0.5;exitY=1.01;entryX=0.5;entryY=0.01;rounded=0;" edge="1" parent="1" source="KiN4PA8L3Kas0firW-a9-21" target="KiN4PA8L3Kas0firW-a9-24">
          <mxGeometry relative="1" as="geometry">
            <Array as="points" />
          </mxGeometry>
        </mxCell>
        <mxCell id="KiN4PA8L3Kas0firW-a9-45" value="" style="curved=1;startArrow=none;endArrow=block;exitX=0.5;exitY=1.02;entryX=0.5;entryY=-0.01;rounded=0;" edge="1" parent="1" source="KiN4PA8L3Kas0firW-a9-24" target="KiN4PA8L3Kas0firW-a9-25">
          <mxGeometry relative="1" as="geometry">
            <Array as="points" />
          </mxGeometry>
        </mxCell>
        <mxCell id="KiN4PA8L3Kas0firW-a9-46" value="" style="curved=1;startArrow=none;endArrow=block;exitX=0.5;exitY=0.99;entryX=0.5;entryY=-0.01;rounded=0;" edge="1" parent="1" source="KiN4PA8L3Kas0firW-a9-25" target="KiN4PA8L3Kas0firW-a9-26">
          <mxGeometry relative="1" as="geometry">
            <Array as="points" />
          </mxGeometry>
        </mxCell>
        <mxCell id="KiN4PA8L3Kas0firW-a9-47" value="" style="curved=1;startArrow=none;endArrow=block;exitX=0.5;exitY=1;entryX=0.5;entryY=0;rounded=0;" edge="1" parent="1" source="KiN4PA8L3Kas0firW-a9-26" target="KiN4PA8L3Kas0firW-a9-27">
          <mxGeometry relative="1" as="geometry">
            <Array as="points" />
          </mxGeometry>
        </mxCell>
        <mxCell id="KiN4PA8L3Kas0firW-a9-48" value="" style="curved=1;startArrow=none;endArrow=block;exitX=0.5;exitY=1.01;entryX=0.5;entryY=0.01;rounded=0;" edge="1" parent="1" source="KiN4PA8L3Kas0firW-a9-22" target="KiN4PA8L3Kas0firW-a9-28">
          <mxGeometry relative="1" as="geometry">
            <Array as="points" />
          </mxGeometry>
        </mxCell>
        <mxCell id="KiN4PA8L3Kas0firW-a9-49" value="" style="curved=1;startArrow=none;endArrow=block;exitX=0.5;exitY=1.02;entryX=0.5;entryY=-0.01;rounded=0;" edge="1" parent="1" source="KiN4PA8L3Kas0firW-a9-28" target="KiN4PA8L3Kas0firW-a9-29">
          <mxGeometry relative="1" as="geometry">
            <Array as="points" />
          </mxGeometry>
        </mxCell>
        <mxCell id="KiN4PA8L3Kas0firW-a9-50" value="" style="curved=1;startArrow=none;endArrow=block;exitX=0.5;exitY=0.99;entryX=0.5;entryY=-0.01;rounded=0;" edge="1" parent="1" source="KiN4PA8L3Kas0firW-a9-29" target="KiN4PA8L3Kas0firW-a9-30">
          <mxGeometry relative="1" as="geometry">
            <Array as="points" />
          </mxGeometry>
        </mxCell>
        <mxCell id="KiN4PA8L3Kas0firW-a9-51" value="" style="curved=1;startArrow=none;endArrow=block;exitX=0.37;exitY=1;entryX=0.5;entryY=0;rounded=0;" edge="1" parent="1" source="KiN4PA8L3Kas0firW-a9-30" target="KiN4PA8L3Kas0firW-a9-31">
          <mxGeometry relative="1" as="geometry">
            <Array as="points">
              <mxPoint x="439" y="471" />
            </Array>
          </mxGeometry>
        </mxCell>
        <mxCell id="KiN4PA8L3Kas0firW-a9-52" value="" style="curved=1;startArrow=none;endArrow=block;exitX=0.5;exitY=1;entryX=0.19;entryY=0;rounded=0;" edge="1" parent="1" source="KiN4PA8L3Kas0firW-a9-31" target="KiN4PA8L3Kas0firW-a9-32">
          <mxGeometry relative="1" as="geometry">
            <Array as="points">
              <mxPoint x="439" y="563" />
            </Array>
          </mxGeometry>
        </mxCell>
        <mxCell id="KiN4PA8L3Kas0firW-a9-53" value="No" style="curved=1;startArrow=none;endArrow=block;exitX=0.85;exitY=0;entryX=0.64;entryY=1;rounded=0;" edge="1" parent="1" source="KiN4PA8L3Kas0firW-a9-32" target="KiN4PA8L3Kas0firW-a9-30">
          <mxGeometry relative="1" as="geometry">
            <Array as="points">
              <mxPoint x="599" y="563" />
              <mxPoint x="599" y="471" />
            </Array>
          </mxGeometry>
        </mxCell>
        <mxCell id="KiN4PA8L3Kas0firW-a9-54" value="Yes" style="curved=1;startArrow=none;endArrow=block;exitX=0.5;exitY=1;entryX=0.5;entryY=0.01;rounded=0;" edge="1" parent="1" source="KiN4PA8L3Kas0firW-a9-32" target="KiN4PA8L3Kas0firW-a9-33">
          <mxGeometry relative="1" as="geometry">
            <Array as="points" />
          </mxGeometry>
        </mxCell>
        <mxCell id="KiN4PA8L3Kas0firW-a9-55" value="" style="curved=1;startArrow=none;endArrow=block;exitX=0.5;exitY=1.01;entryX=0.5;entryY=0.01;rounded=0;" edge="1" parent="1" source="KiN4PA8L3Kas0firW-a9-23" target="KiN4PA8L3Kas0firW-a9-34">
          <mxGeometry relative="1" as="geometry">
            <Array as="points" />
          </mxGeometry>
        </mxCell>
        <mxCell id="KiN4PA8L3Kas0firW-a9-56" value="" style="curved=1;startArrow=none;endArrow=block;exitX=0.5;exitY=1.02;entryX=0.5;entryY=-0.01;rounded=0;" edge="1" parent="1" source="KiN4PA8L3Kas0firW-a9-34" target="KiN4PA8L3Kas0firW-a9-35">
          <mxGeometry relative="1" as="geometry">
            <Array as="points" />
          </mxGeometry>
        </mxCell>
        <mxCell id="KiN4PA8L3Kas0firW-a9-57" value="" style="curved=1;startArrow=none;endArrow=block;exitX=0.5;exitY=0.99;entryX=0.5;entryY=-0.01;rounded=0;" edge="1" parent="1" source="KiN4PA8L3Kas0firW-a9-35" target="KiN4PA8L3Kas0firW-a9-36">
          <mxGeometry relative="1" as="geometry">
            <Array as="points" />
          </mxGeometry>
        </mxCell>
        <mxCell id="KiN4PA8L3Kas0firW-a9-58" value="" style="curved=1;startArrow=none;endArrow=block;exitX=0.38;exitY=1;entryX=0.5;entryY=0;rounded=0;" edge="1" parent="1" source="KiN4PA8L3Kas0firW-a9-36" target="KiN4PA8L3Kas0firW-a9-37">
          <mxGeometry relative="1" as="geometry">
            <Array as="points">
              <mxPoint x="766" y="471" />
            </Array>
          </mxGeometry>
        </mxCell>
        <mxCell id="KiN4PA8L3Kas0firW-a9-59" value="" style="curved=1;startArrow=none;endArrow=block;exitX=0.5;exitY=1;entryX=0.5;entryY=-0.01;rounded=0;" edge="1" parent="1" source="KiN4PA8L3Kas0firW-a9-37" target="KiN4PA8L3Kas0firW-a9-38">
          <mxGeometry relative="1" as="geometry">
            <Array as="points" />
          </mxGeometry>
        </mxCell>
        <mxCell id="KiN4PA8L3Kas0firW-a9-60" value="" style="curved=1;startArrow=none;endArrow=block;exitX=0.5;exitY=1;entryX=0.24;entryY=0;rounded=0;" edge="1" parent="1" source="KiN4PA8L3Kas0firW-a9-38" target="KiN4PA8L3Kas0firW-a9-39">
          <mxGeometry relative="1" as="geometry">
            <Array as="points">
              <mxPoint x="766" y="809" />
            </Array>
          </mxGeometry>
        </mxCell>
        <mxCell id="KiN4PA8L3Kas0firW-a9-61" value="No" style="curved=1;startArrow=none;endArrow=block;exitX=0.75;exitY=0;entryX=0.62;entryY=1;rounded=0;" edge="1" parent="1" source="KiN4PA8L3Kas0firW-a9-39" target="KiN4PA8L3Kas0firW-a9-36">
          <mxGeometry relative="1" as="geometry">
            <Array as="points">
              <mxPoint x="892" y="809" />
              <mxPoint x="892" y="471" />
            </Array>
          </mxGeometry>
        </mxCell>
        <mxCell id="KiN4PA8L3Kas0firW-a9-62" value="Yes" style="curved=1;startArrow=none;endArrow=block;exitX=0.5;exitY=1;entryX=0.5;entryY=0.01;rounded=0;" edge="1" parent="1" source="KiN4PA8L3Kas0firW-a9-39" target="KiN4PA8L3Kas0firW-a9-40">
          <mxGeometry relative="1" as="geometry">
            <Array as="points" />
          </mxGeometry>
        </mxCell>
      </root>
    </mxGraphModel>
  </diagram>
</mxfile>
